# xmcd
#
# Track frame offsets:
# 150
# 12864
# 29523
# 43131
# 56737
# 73176
# 86969
# 100828
# 114166
# 134834
# 148747
# 163829
#
# Disc length: 2341 seconds
#
#
# Revision: 0
# Processed by: cddbd v1.5.2PL0 Copyright (c) Steve Scherf et al.
# Submitted via: FreeRIP 2.945 
#
DISCID=b409230c
DTITLE=Fábio Oliveira - 
DYEAR=1900
DGENRE=
TTITLE0=Chacoaia que Chacoaia
TTITLE1=Vai meu Cavalo
TTITLE2=Hoje a Cobra Vai Fumar
TTITLE3=O Taura do Chamamé
TTITLE4=Fui Feliz
TTITLE5=Gaúcho Pachucheiro
TTITLE6=Faltava Você
TTITLE7=Rasgando a Gaita
TTITLE8=Eu me Esqueci de te Esquecer
TTITLE9=Rodeio da Paixão
TTITLE10=Pra Quem tem Raíz
TTITLE11=O Meu Amor
EXTD=
EXTT0=
EXTT1=
EXTT2=
EXTT3=
EXTT4=
EXTT5=
EXTT6=
EXTT7=
EXTT8=
EXTT9=
EXTT10=
EXTT11=
PLAYORDER=
